<svg data-v-0dd9719b="" version="1.0" xmlns="http://www.w3.org/2000/svg" xmlns:xlink="http://www.w3.org/1999/xlink" width="100%" height="100%" viewBox="0 0 340.000000 250.000000" preserveAspectRatio="xMidYMid meet" color-interpolation-filters="sRGB" style="margin: auto;"> <rect data-v-0dd9719b="" x="0" y="0" width="100%" height="100%" fill="#ffffff" fill-opacity="1" class="background"></rect> <rect data-v-0dd9719b="" x="0" y="0" width="100%" height="100%" fill="url(#watermark)" fill-opacity="1" class="watermarklayer"></rect> <g data-v-0dd9719b="" fill="#f7b634" class="icon-text-wrapper icon-svg-group iconsvg" transform="translate(49.11182403564453,94.969970703125)"><g class="iconsvg-imagesvg" transform="translate(0,0)"><g><rect fill="#f7b634" fill-opacity="0" stroke-width="2" x="0" y="0" width="60" height="60.06006006006006" class="image-rect"></rect> <svg filter="url(#colors8781618713)" x="0" y="0" width="60" height="60.06006006006006" filtersec="colorsf1340349857" class="image-svg-svg primary" style="overflow: visible;"><svg xmlns="http://www.w3.org/2000/svg" viewBox="0 0 103.5 103.6"><path d="M101.5 51.8c0 27.5-22.3 49.8-49.8 49.8C24.3 101.5 2 79.2 2 51.8 2 24.3 24.3 2 51.8 2c27.4 0 49.7 22.3 49.7 49.8zM26.9 8.7L76.6 95M60 100.8L13.4 20m13.4 75l15-25.9m11.1 32.4l3.8-6.5M8.1 27.9l28.8 49.8M19.4 90.6l12.4-21.4M43 101.5l8.7-15m-24.8-8.8L3.9 38m9.5 45.7l8.3-14.5m25 8.5L34.3 99.2M2 51.8l14.9 26m34.9-26L76.6 8.6m7 4.9L56.7 60.1M90 19.9L61.6 69.1m15 25.9l-15-25.9M46.7 95l3.8 6.5m44.9-73.7L66.5 77.7M83.6 90l-12-20.8M34.7 5l22 38.2m3.3 57.6l-8.3-14.4m47.9-48.6L76.5 77.7m13.5 6l-8.3-14.5M43.3 2.7l18.4 32m7.1 63.8l-49-84.9m81.7 38.2l-15.1 26M52.9 2l13.8 23.9M63.6 3.4l8 13.8" fill="none" stroke="#333" stroke-width="4" stroke-miterlimit="10"></path></svg></svg> <defs><filter id="colors8781618713"><feColorMatrix type="matrix" values="0 0 0 0 0.96484375  0 0 0 0 0.7109375  0 0 0 0 0.203125  0 0 0 1 0" class="icon-fecolormatrix"></feColorMatrix></filter> <filter id="colorsf1340349857"><feColorMatrix type="matrix" values="0 0 0 0 0.99609375  0 0 0 0 0.99609375  0 0 0 0 0.99609375  0 0 0 1 0" class="icon-fecolormatrix"></feColorMatrix></filter> <filter id="colorsb9622569329"><feColorMatrix type="matrix" values="0 0 0 0 0  0 0 0 0 0  0 0 0 0 0  0 0 0 1 0" class="icon-fecolormatrix"></feColorMatrix></filter></defs></g></g> <g transform="translate(67,1.5237808227539062)"><g data-gra="path-name" fill-rule="" class="tp-name iconsvg-namesvg" transform="translate(0,0)"><g transform="scale(1)"><g><path d="M39.73-29.4L39.73-29.4 24.79-29.4Q24.65-28.26 24.21-26.02L24.21-26.02 37.62-26.02Q38.94-26.02 39.75-25.2 40.56-24.39 40.56-23.07L40.56-23.07 40.56-1.58Q40.56 0.35 40.01 1.41 39.46 2.46 38.1 3.03L38.1 3.03Q36.52 3.65 32.78 3.74L32.78 3.74Q30.1 3.82 29.44 1.98L29.44 1.98Q28.92 0.53 29.73-0.09 30.54-0.7 32.34-0.62L32.34-0.62Q32.78-0.62 33.35-0.64 33.93-0.66 34.01-0.66L34.01-0.66Q35.07-0.66 35.07-1.63L35.07-1.63 35.07-20.04Q35.07-21.09 33.97-21.09L33.97-21.09 26.54-21.09 28.92-20.61Q30.98-20.17 30.23-18.19L30.23-18.19Q29.66-16.57 29.18-15.47L29.18-15.47 30.32-15.47Q32.39-15.47 32.39-13.4 32.39-11.34 30.32-11.34L30.32-11.34 24.83-11.34 24.83-8.39 31.25-8.39Q33.4-8.39 33.4-6.24 33.4-4.09 31.25-4.09L31.25-4.09 24.83-4.09 24.83 0.09Q24.83 2.55 22.37 2.55 19.91 2.55 19.91 0.09L19.91 0.09 19.91-4.09 13.75-4.09Q11.6-4.09 11.6-6.24 11.6-8.39 13.75-8.39L13.75-8.39 19.91-8.39 19.91-11.34 14.63-11.34Q12.57-11.34 12.57-13.4 12.57-15.47 14.63-15.47L14.63-15.47 16-15.47Q15.64-16.74 15.03-18.24L15.03-18.24Q14.33-20.04 16.17-20.48L16.17-20.48Q17.23-20.83 18.13-20.3 19.03-19.78 19.42-18.68L19.42-18.68Q19.91-17.58 19.6-16.7 19.29-15.82 18.19-15.51L18.19-15.51 18.11-15.47 24.61-15.47Q25.84-18.94 26.28-21.09L26.28-21.09 10.94-21.09Q9.84-21.09 9.84-20.04L9.84-20.04 9.84 1.14Q9.84 3.78 7.21 3.78L7.21 3.78Q4.48 3.78 4.48 1.14L4.48 1.14 4.48-23.07Q4.48-24.39 5.3-25.2 6.11-26.02 7.43-26.02L7.43-26.02 18.94-26.02Q19.29-28.3 19.42-29.4L19.42-29.4 5.27-29.4Q2.77-29.4 2.77-31.9L2.77-31.9Q2.77-34.37 5.27-34.37L5.27-34.37 20-34.37Q20-34.5 20.02-34.78 20.04-35.07 20.04-35.2L20.04-35.2Q20.21-38.14 23.12-37.88L23.12-37.88Q26.06-37.62 25.66-34.63L25.66-34.63Q25.66-34.58 25.64-34.5 25.62-34.41 25.62-34.37L25.62-34.37 39.73-34.37Q42.23-34.37 42.23-31.9L42.23-31.9Q42.23-29.4 39.73-29.4ZM84.59-28.7L84.59-28.7 50.36-28.7Q47.86-28.7 47.86-31.29L47.86-31.29Q47.86-33.79 50.36-33.79L50.36-33.79 64.56-33.79 64.56-35.33Q64.56-38.1 67.37-38.1L67.37-38.1Q70.14-38.1 70.14-35.33L70.14-35.33 70.14-33.79 84.59-33.79Q87.1-33.79 87.1-31.29L87.1-31.29Q87.1-28.7 84.59-28.7ZM57.79-5.05L57.79-5.05Q55.33-1.67 52.6 0.83L52.6 0.83Q50.93 2.24 49.17 1.05L49.17 1.05Q46.63-0.79 49.09-2.94L49.09-2.94Q51.33-5.1 52.91-7.43L52.91-7.43Q54.1-9.49 56.51-8.7L56.51-8.7Q59.59-7.73 57.79-5.05ZM75.67-20.96L75.67-20.96 59.33-20.96Q58.23-20.96 58.23-19.91L58.23-19.91 58.23-16.88Q58.23-15.78 59.33-15.78L59.33-15.78 75.67-15.78Q76.77-15.78 76.77-16.88L76.77-16.88 76.77-19.91Q76.77-20.96 75.67-20.96ZM55.85-25.58L55.85-25.58 79.45-25.58Q80.77-25.58 81.58-24.76 82.4-23.95 82.4-22.63L82.4-22.63 82.4-14.15Q82.4-12.83 81.58-12.02 80.77-11.21 79.45-11.21L79.45-11.21 70.14-11.21 70.14-1.71Q70.14 0.4 69.63 1.49 69.13 2.59 67.72 3.12L67.72 3.12Q65.92 3.78 62.45 3.87L62.45 3.87Q59.55 3.96 58.89 1.85L58.89 1.85Q58.36 0.26 59.26-0.46 60.16-1.19 62.05-1.14L62.05-1.14 63.68-1.14Q64.29-1.19 64.47-1.32 64.64-1.45 64.64-1.89L64.64-1.89 64.64-11.21 55.85-11.21Q54.54-11.21 53.72-12.02 52.91-12.83 52.91-14.15L52.91-14.15 52.91-22.63Q52.91-23.95 53.72-24.76 54.54-25.58 55.85-25.58ZM81.39 0.57L81.39 0.57Q78.93-2.59 77.17-4.79L77.17-4.79Q75.01-7.08 77.96-8.53L77.96-8.53Q79.85-9.45 81.3-7.95L81.3-7.95Q84.2-4.92 86.4-2.11L86.4-2.11Q87.23-0.83 86.92-0.07 86.62 0.7 85.21 1.45L85.21 1.45Q83.98 2.11 83.06 1.91 82.13 1.71 81.39 0.57ZM105.25-34.94L105.25-34.94Q107.71-33.79 111.88-31.29L111.88-31.29Q113.91-29.88 112.28-27.73L112.28-27.73Q111.31-26.46 110.54-26.24 109.78-26.02 108.54-26.85L108.54-26.85Q106.83-28.04 102.92-30.37L102.92-30.37Q100.33-31.68 102.04-34.01L102.04-34.01Q103.32-35.82 105.25-34.94ZM104.24-22.32L104.24-22.32Q104.94-21.97 106.08-21.29 107.23-20.61 107.45-20.48L107.45-20.48Q108.59-19.69 108.68-18.81 108.76-17.93 107.89-16.83L107.89-16.83Q106.92-15.6 106.15-15.38 105.38-15.16 104.15-16.04L104.15-16.04Q102.35-17.31 97.56-20L97.56-20Q95.01-21.36 96.81-23.64L96.81-23.64Q98.09-25.36 99.93-24.48L99.93-24.48Q100.94-23.99 104.24-22.32ZM95.05-9.58L116.94-12.7 116.94-35.33Q116.94-38.1 119.79-38.1L119.79-38.1Q122.56-38.1 122.56-35.33L122.56-35.33 122.56-13.49 129.38-14.5Q132.01-14.81 132.32-12.22L132.32-12.22Q132.67-9.62 130.08-9.27L130.08-9.27 122.56-8.13 122.56 1.14Q122.56 3.91 119.79 3.91L119.79 3.91Q116.94 3.91 116.94 1.14L116.94 1.14 116.94-7.38 95.76-4.31Q93.08-3.91 92.72-6.64L92.72-6.64Q92.42-9.23 95.05-9.58L95.05-9.58ZM172.35-27.95L172.35-27.95Q172.18-27.64 169.98-24.43L169.98-24.43Q168.88-22.98 166.86-23.86L166.86-23.86Q164.18-25.05 165.59-27.16L165.59-27.16Q167.21-29.88 168.84-33.31L168.84-33.31Q170.07-36.17 172.92-35.07L172.92-35.07Q176.09-33.84 174.2-30.81L174.2-30.81Q173.85-30.23 173.17-29.2 172.49-28.17 172.35-27.95ZM145.81-34.19L145.81-34.19Q148.14-30.63 149.5-28.04L149.5-28.04Q150.42-25.71 148.01-24.61L148.01-24.61Q146.56-23.95 145.66-24.21 144.76-24.48 144.23-25.93L144.23-25.93Q143.09-28.43 141.37-31.16L141.37-31.16Q140.49-32.39 140.78-33.44 141.06-34.5 142.43-35.07L142.43-35.07Q144.54-35.95 145.81-34.19ZM160.36-35.24L160.36-21.36 174.77-21.36Q177.5-21.36 177.5-18.68L177.5-18.68Q177.5-15.91 174.77-15.91L174.77-15.91 164.09-15.91Q168.79-9.18 175.74-4.26L175.74-4.26Q177.32-3.25 177.52-2.26 177.71-1.27 176.53 0.18L176.53 0.18Q175.52 1.32 174.57 1.41 173.63 1.49 172.4 0.57L172.4 0.57Q165.54-4.79 160.36-12.52L160.36-12.52 160.36 1.14Q160.36 3.96 157.5 3.96 154.64 3.96 154.64 1.14L154.64 1.14 154.64-12.35Q149.46-4.39 142.56 0.88L142.56 0.88Q141.37 1.71 140.47 1.63 139.57 1.54 138.6 0.44L138.6 0.44Q137.42-0.92 137.61-1.91 137.81-2.9 139.35-3.87L139.35-3.87Q142.69-6.2 145.77-9.36 148.84-12.52 151.04-15.91L151.04-15.91 140.27-15.91Q137.55-15.91 137.55-18.68L137.55-18.68Q137.55-21.36 140.27-21.36L140.27-21.36 154.64-21.36 154.64-35.24Q154.64-38.06 157.5-38.06 160.36-38.06 160.36-35.24L160.36-35.24Z" transform="translate(-2.7699999809265137, 38.099998474121094)"></path></g> <!----> <!----> <!----> <!----> <!----> <!----> <!----></g></g> <g data-gra="path-slogan" fill-rule="" class="tp-slogan iconsvg-slogansvg" fill="#203d88" transform="translate(5,48.05999755859375)"><rect x="0" height="1" y="3.9750003814697266" width="32.538177490234375"></rect> <rect height="1" y="3.9750003814697266" width="32.538177490234375" x="132.23817443847656"></rect> <g transform="translate(35.538177490234375,0)"><g transform="scale(1)"><path d="M2.30-8.58L6.61-1.64L6.61-8.58L7.73-8.58L7.73 0L6.42 0L2.06-6.94L2.02-6.94L2.02 0L0.89 0L0.89-8.58L2.30-8.58ZM15.19 0L14.34-2.48L10.88-2.48L9.98 0L8.81 0L12.05-8.58L13.36-8.58L16.45 0L15.19 0ZM12.61-7.31L11.25-3.52L13.92-3.52L12.66-7.31L12.61-7.31ZM18.89-8.58L23.20-1.64L23.20-8.58L24.33-8.58L24.33 0L23.02 0L18.66-6.94L18.61-6.94L18.61 0L17.48 0L17.48-8.58L18.89-8.58ZM25.41-1.92L25.41-2.77L26.48-2.77L26.48-2.16Q26.48-0.75 27.80-0.75L27.80-0.75Q29.16-0.75 29.16-2.25L29.16-2.25L29.16-8.58L30.33-8.58L30.33-2.30Q30.28 0.09 27.84 0.14L27.84 0.14Q25.55 0.09 25.41-1.92L25.41-1.92ZM32.30-8.58L33.47-8.58L33.47 0L32.30 0L32.30-8.58ZM36.84-8.58L41.16-1.64L41.16-8.58L42.28-8.58L42.28 0L40.97 0L36.61-6.94L36.56-6.94L36.56 0L35.44 0L35.44-8.58L36.84-8.58ZM50.48-3.61L47.86-3.61L47.86-4.59L51.61-4.59L51.61 0L50.86 0L50.58-1.08Q49.59 0.09 47.77 0.14L47.77 0.14Q46.03 0.14 45.09-0.75L45.09-0.75Q43.69-2.06 43.73-4.36L43.73-4.36Q44.06-8.63 47.81-8.81L47.81-8.81Q51-8.63 51.47-6L51.47-6L50.34-6Q49.88-7.78 47.77-7.83L47.77-7.83Q45.09-7.64 44.95-4.31L44.95-4.31Q44.95-0.75 47.81-0.75L47.81-0.75Q48.84-0.75 49.59-1.31L49.59-1.31Q50.53-2.06 50.48-3.61L50.48-3.61ZM60.23 0L56.77 0L56.77-8.58L60.28-8.58Q63.75-8.39 63.89-4.41L63.89-4.41Q63.70-0.09 60.23 0L60.23 0ZM60.09-7.64L57.94-7.64L57.94-0.98L60.19-0.98Q62.63-1.13 62.72-4.31L62.72-4.31Q62.67-7.55 60.09-7.64L60.09-7.64ZM72.14-4.27L72.14-4.27Q71.95-7.64 69.14-7.83L69.14-7.83Q66.28-7.69 66.14-4.27L66.14-4.27Q66.28-0.94 69.14-0.80L69.14-0.80Q71.95-0.98 72.14-4.27ZM73.31-4.27L73.31-4.27Q73.03 0 69.14 0.14L69.14 0.14Q65.20 0 64.92-4.27L64.92-4.27Q65.16-8.72 69.14-8.81L69.14-8.81Q73.03-8.67 73.31-4.27ZM80.34-3.19L80.34-8.58L81.52-8.58L81.52-3.05Q81.38 0.05 78 0.14L78 0.14Q74.86 0.05 74.72-2.86L74.72-2.86L74.72-8.58L75.89-8.58L75.89-3.19Q75.94-0.84 78.05-0.80L78.05-0.80Q80.34-0.84 80.34-3.19L80.34-3.19ZM91.55-8.58L91.55 0L90.42 0L90.42-5.06Q90.42-5.77 90.42-7.22L90.42-7.22L87.98 0L86.81 0L84.42-7.22L84.38-7.22Q84.38-6.70 84.42-5.67L84.42-5.67Q84.42-5.16 84.42-5.06L84.42-5.06L84.42 0L83.25 0L83.25-8.58L84.94-8.58L87.42-1.31L89.86-8.58L91.55-8.58ZM93.42-8.58L94.59-8.58L94.59 0L93.42 0L93.42-8.58Z" transform="translate(-0.890625, 8.8125)"></path></g></g></g></g></g><defs v-gra="od"></defs></svg>